<svg xmlns="http://www.w3.org/2000/svg" width="300" height="300"><rect width="300" height="300" fill="#edc53f" opacity=".93" ry="46.812"/><path fill="#fff" fill-opacity=".941" d="M90.494 180.2H46.869v-9.93c7.824-7.822 30.474-25.409 28.15-35.53-3.072-9.688-16.516-3.104-18.497 1.318l-9.606-7.34c9.905-15.277 40.548-13.517 41.418 6.161.134 15.553-15.328 25.09-24.344 33.668v.596h26.504zm55.196-30.08c.063 17.934-5.115 31.485-23.027 31.6-19.083-.036-23.56-13.743-23.495-31.488-.065-17.78 4.781-31.58 23.495-31.614 18.066.034 22.964 13.854 23.027 31.502zm-33.734.112c.116 7.027.676 20.614 10.483 20.711 9.705.112 10.513-14.386 10.538-20.823-.127-6.99-.488-20.502-10.426-20.57-10.098-.184-10.528 13.963-10.595 20.682zM231.71 118.61c8.524.045 20.45 3.725 20.459 14.803-.009 8.758-3.65 10.729-10.64 14.548 7.695 4.645 12.534 8.111 12.623 17.241-.09 11.956-11.652 16.271-22.443 16.351-11.363-.08-22.57-4.135-22.744-16.523.179-8.938 5.42-14.001 11.103-16.861-6.49-3.98-9.533-6.036-9.373-14.84-.16-10.907 11.817-14.673 21.014-14.719zm-10.534 45.347c-.043 5.684 4.696 7.744 10.41 7.695 5.505.049 9.672-2.245 9.74-7.167.048-8.267-9.734-11.879-9.734-11.879s-10.46 3.613-10.416 11.351zm10.441-34.982c-4.798-.04-9.151 1.04-9.174 5.677.023 5.4 9.078 9.104 9.078 9.104s8.33-3.654 8.459-9.485c-.192-4.252-3.809-5.337-8.363-5.296zM202.22 170.07h-7.77v10.088h-11.51v-10.08h-30.06v-11.137l29.332-38.853h12.238v39.776h7.77zm-19.28-33.723-18.038 23.517h18.038z"/></svg>